<svg width="188" height="186" viewBox="69 0 188 186" fill="none" xmlns="http://www.w3.org/2000/svg">
  <path d="M129.522 91.766H123.466C107.38 105.98 94.8838 123.814 87.0013 143.805C87.8825 145.109 88.8057 146.385 89.7987 147.633C97.9025 125.829 111.606 106.557 129.522 91.766ZM109.353 91.766H103.282C92.8427 101.023 83.8802 111.829 76.7069 123.808C77.2943 125.365 77.9098 126.907 78.5671 128.436C86.5158 114.435 96.9489 102.008 109.353 91.766ZM149.705 91.766H143.649C123.047 109.945 108.451 133.979 101.8 160.675C102.905 161.656 104.024 162.61 105.171 163.479C111.757 135.32 127.407 110.118 149.705 91.766ZM184.002 91.766C158.137 114.563 141.953 146.418 138.767 180.797C140.054 181.148 141.341 181.471 142.642 181.765C144.173 164.353 149.157 147.424 157.302 131.969C165.446 116.514 176.588 102.846 190.072 91.766H184.002ZM169.889 91.766H163.832C139.97 112.8 124.278 141.603 119.521 173.099C120.738 173.758 121.969 174.389 123.228 174.992C127.827 142.367 144.48 112.664 169.889 91.766Z" fill="#242731"/>
  <path d="M174.798 106.602C173.917 107.598 173.036 108.622 172.183 109.659C194.029 121.414 211.714 139.654 222.816 161.881C223.851 160.983 224.858 160.072 225.851 159.146C214.492 136.882 196.7 118.57 174.798 106.602Z" fill="#242731"/>
  <path d="M165.049 119.167C164.294 120.247 163.566 121.354 162.853 122.462C182.9 133.807 199.279 150.68 210.045 171.08C211.178 170.393 212.283 169.677 213.388 168.976C202.32 148.108 185.553 130.831 165.049 119.167Z" fill="#242731"/>
  <path d="M156.895 132.769C156.293 133.933 155.692 135.111 155.118 136.303C171.905 146.63 185.906 160.931 195.891 177.951C197.121 177.474 198.352 176.983 199.569 176.45C189.187 158.56 174.52 143.547 156.895 132.769Z" fill="#242731"/>
  <path d="M150.405 147.549C149.929 148.825 149.482 150.115 149.006 151.405C161.11 159.787 171.582 170.319 179.903 182.48C181.302 182.214 182.701 181.933 184.099 181.611C175.179 168.172 163.735 156.603 150.405 147.549Z" fill="#242731"/>
  <path d="M236.411 91.766H230.676C238.77 99.0958 245.829 107.498 251.657 116.741C252.147 115.016 252.58 113.263 252.958 111.496C248.142 104.36 242.597 97.7472 236.411 91.766Z" fill="#242731"/>
  <path d="M145.439 163.984C145.104 165.386 144.796 166.789 144.516 168.289C150.373 173.009 155.772 178.272 160.643 184.009H162.993C163.916 184.009 164.825 184.009 165.79 184.009C159.794 176.574 152.966 169.855 145.439 163.984Z" fill="#242731"/>
  <path d="M186.309 95.0333C185.274 95.9729 184.239 96.8984 183.232 97.8379C205.264 109.529 223.121 127.805 234.327 150.129C235.25 148.994 236.131 147.858 236.999 146.694C225.594 124.809 207.948 106.825 186.309 95.0333Z" fill="#242731"/>
  <path d="M211.095 91.766H204.101C220.842 102.72 234.595 117.685 244.118 135.307C244.859 133.905 245.517 132.503 246.258 131.1C237.475 115.62 225.485 102.207 211.095 91.766Z" fill="#242731"/>
  <path d="M162.993 186C138.072 185.974 114.18 176.037 96.5585 158.371C78.937 140.704 69.0259 116.75 69 91.766C69 91.2416 69.2078 90.7387 69.5776 90.3679C69.9475 89.9971 70.4491 89.7887 70.9722 89.7887H255.014C255.273 89.7887 255.529 89.8399 255.769 89.9393C256.008 90.0386 256.225 90.1843 256.408 90.3679C256.592 90.5515 256.737 90.7694 256.836 91.0093C256.935 91.2492 256.986 91.5063 256.986 91.766C256.96 116.75 247.049 140.704 229.427 158.371C211.806 176.037 187.914 185.974 162.993 186ZM72.9583 93.7432C73.544 117.294 83.2867 139.682 100.108 156.131C116.929 172.58 139.496 181.786 162.993 181.786C186.49 181.786 209.057 172.58 225.878 156.131C242.699 139.682 252.442 117.294 253.028 93.7432H72.9583Z" fill="#242731"/>
  <path d="M162.252 67.4222L166.448 63.1031L170.714 67.4222C175.96 73.0563 180.174 79.5739 183.162 86.6756C185.562 84.3435 187.47 81.5515 188.772 78.4657C190.074 75.3798 190.745 72.063 190.743 68.7123V5.28664C190.743 3.16917 187.764 1.27608 184.953 1.27608V50.5807H176.267V2.48205C176.117 1.79001 175.736 1.17011 175.186 0.725528C174.637 0.280942 173.952 0.0384827 173.245 0.0384827C172.539 0.0384827 171.854 0.280942 171.305 0.725528C170.755 1.17011 170.374 1.79001 170.224 2.48205V50.6788H161.273V2.48205C161.123 1.79001 160.742 1.17011 160.192 0.725528C159.643 0.280942 158.958 0.0384827 158.251 0.0384827C157.545 0.0384827 156.86 0.280942 156.311 0.725528C155.761 1.17011 155.38 1.79001 155.23 2.48205V50.6788H146.53V0.68712C144.768 0.68712 140.74 1.65471 140.74 5.03423V68.7123C140.741 72.2993 141.513 75.844 143.002 79.1056C144.491 82.3672 146.663 85.2694 149.37 87.6152C152.386 80.1462 156.754 73.3003 162.252 67.4222Z" fill="#242731"/>
  <path d="M132.333 77.6589C96.5545 78.8929 70.9582 82.1883 70.9582 86.0727H138.362C135.984 83.5525 133.957 80.7224 132.333 77.6589Z" fill="#7BD3A5"/>
  <path d="M194.674 86.0587H256.706C256.706 82.3847 233.572 79.2295 200.534 77.8552C198.941 80.831 196.971 83.5883 194.674 86.0587Z" fill="#7BD3A5"/>
</svg>
